# xmcd
#
# Track frame offsets:
#	150
#	14635
#	30931
#	49250
#	66168
#	83209
#	97377
#	113945
#	132272
#	147932
#	163934
#	180543
#	195464
#	218784
#	235816
#	251663
#	268696
#	284700
#
# Disc length: 3983
#
# Revision: 2
# Processed by: cddbd v1.5.1PL0 Copyright (c) Steve Scherf et al.
# Submitted via: audiograbber 1.83.01
# Normalized: r1:DSETVAR1
#
DISCID=140f8d12
DTITLE=Various Artist - French Trance
DYEAR=2003
DGENRE=Trance
TTITLE0=Kate Ryan - Libertine
TTITLE1=In-Grid - Tu Es Foutu
TTITLE2=Sylver - Je Ne Sais Pas
TTITLE3=Jessy - Regardez Moi
TTITLE4=Kelly G. - Ouragan
TTITLE5=Roxane - Re-Arrange
TTITLE6=O-Mind - Lucifer
TTITLE7=Night Sliders - Energy
TTITLE8=DJ Jean Pierre - Plus
TTITLE9=BB - Je T Aime Melancolie
TTITLE10=Quebec - Franch Ice
TTITLE11=Base Unique - Voyage Voyage
TTITLE12=4. FX - Mammagamma
TTITLE13=Volage - Fée Du Soleil
TTITLE14=Syam - Fin D'Été
TTITLE15=Hacienda - Le Soleil
TTITLE16=Klee - Comme Un Rayon Lumineux
TTITLE17=R&W Feat. Denise Mbaye - Avec Toi
EXTD=
EXTT0=
EXTT1=
EXTT2=
EXTT3=
EXTT4=
EXTT5=
EXTT6=
EXTT7=
EXTT8=
EXTT9=
EXTT10=
EXTT11=
EXTT12=
EXTT13=
EXTT14=
EXTT15=
EXTT16=
EXTT17=
PLAYORDER=
